HIERARCHY
ROOT Hips
{
	OFFSET 0.000000 0.000000 0.000000
	CHANNELS 6 Xposition Yposition Zposition Zrotation Xrotation Yrotation
	JOINT LHipJoint
	{
		OFFSET 0.000000 0.000000 0.000000
		CHANNELS 3 Zrotation Xrotation Yrotation
		JOINT LeftUpLeg
		{
			OFFSET 0.076937 -0.101296 0.047373
			CHANNELS 3 Zrotation Xrotation Yrotation
			JOINT LeftLeg
			{
				OFFSET 0.138181 -0.379650 0.000000
				CHANNELS 3 Zrotation Xrotation Yrotation
				JOINT LeftFoot
				{
					OFFSET 0.144621 -0.397343 0.000000
					CHANNELS 3 Zrotation Xrotation Yrotation
					JOINT LeftToeBase
					{
						OFFSET 0.008898 -0.024446 0.131094
						CHANNELS 3 Zrotation Xrotation Yrotation
						JOINT End_Site
						{
							OFFSET 0.000000 -0.000000 0.067149
							CHANNELS 3 Zrotation Xrotation Yrotation
							End Site
							{
								OFFSET 0.000000 -0.000000 0.020145
							}
						}
					}
				}
			}
		}
	}
	JOINT RHipJoint
	{
		OFFSET 0.000000 0.000000 0.000000
		CHANNELS 3 Zrotation Xrotation Yrotation
		JOINT RightUpLeg
		{
			OFFSET -0.073689 -0.101296 0.047373
			CHANNELS 3 Zrotation Xrotation Yrotation
			JOINT RightLeg
			{
				OFFSET -0.143511 -0.394292 0.000000
				CHANNELS 3 Zrotation Xrotation Yrotation
				JOINT RightFoot
				{
					OFFSET -0.144963 -0.398282 0.000000
					CHANNELS 3 Zrotation Xrotation Yrotation
					JOINT RightToeBase
					{
						OFFSET -0.009298 -0.025546 0.133386
						CHANNELS 3 Zrotation Xrotation Yrotation
						JOINT End_Site
						{
							OFFSET -0.000000 -0.000000 0.068344
							CHANNELS 3 Zrotation Xrotation Yrotation
							End Site
							{
								OFFSET -0.000000 -0.000000 0.020503
							}
						}
					}
				}
			}
		}
	}
	JOINT LowerBack
	{
		OFFSET 0.000000 0.000000 0.000000
		CHANNELS 3 Zrotation Xrotation Yrotation
		JOINT Spine
		{
			OFFSET 0.001596 0.114897 -0.010915
			CHANNELS 3 Zrotation Xrotation Yrotation
			JOINT Spine1
			{
				OFFSET 0.003202 0.115645 -0.002413
				CHANNELS 3 Zrotation Xrotation Yrotation
				JOINT Neck
				{
					OFFSET 0.000000 0.000000 0.000000
					CHANNELS 3 Zrotation Xrotation Yrotation
					JOINT Neck1
					{
						OFFSET -0.003058 0.098565 0.009709
						CHANNELS 3 Zrotation Xrotation Yrotation
						JOINT Head
						{
							OFFSET 0.005874 0.099418 -0.006997
							CHANNELS 3 Zrotation Xrotation Yrotation
							JOINT End_Site
							{
								OFFSET 0.002100 0.099931 -0.003523
								CHANNELS 3 Zrotation Xrotation Yrotation
								End Site
								{
									OFFSET 0.000630 0.029979 -0.001057
								}
							}
						}
					}
				}
				JOINT LeftShoulder
				{
					OFFSET 0.000000 0.000000 0.000000
					CHANNELS 3 Zrotation Xrotation Yrotation
					JOINT LeftArm
					{
						OFFSET 0.189788 0.067783 -0.017566
						CHANNELS 3 Zrotation Xrotation Yrotation
						JOINT LeftForeArm
						{
							OFFSET 0.281260 -0.000000 -0.000000
							CHANNELS 3 Zrotation Xrotation Yrotation
							JOINT LeftHand
							{
								OFFSET 0.196626 -0.000000 -0.000000
								CHANNELS 3 Zrotation Xrotation Yrotation
								JOINT LeftFingerBase
								{
									OFFSET 0.000000 0.000000 0.000000
									CHANNELS 3 Zrotation Xrotation Yrotation
									JOINT LeftHandIndex1
									{
										OFFSET 0.040372 -0.000000 -0.000000
										CHANNELS 3 Zrotation Xrotation Yrotation
										JOINT End_Site
										{
											OFFSET 0.032549 -0.000000 -0.000000
											CHANNELS 3 Zrotation Xrotation Yrotation
											End Site
											{
												OFFSET 0.009765 -0.000000 -0.000000
											}
										}
									}
								}
								JOINT LThumb
								{
									OFFSET 0.000000 0.000000 0.000000
									CHANNELS 3 Zrotation Xrotation Yrotation
									JOINT End_Site
									{
										OFFSET 0.033046 -0.000000 0.033046
										CHANNELS 3 Zrotation Xrotation Yrotation
										End Site
										{
											OFFSET 0.009914 -0.000000 0.009914
										}
									}
								}
							}
						}
					}
				}
				JOINT RightShoulder
				{
					OFFSET 0.000000 0.000000 0.000000
					CHANNELS 3 Zrotation Xrotation Yrotation
					JOINT RightArm
					{
						OFFSET -0.177042 0.077557 -0.022840
						CHANNELS 3 Zrotation Xrotation Yrotation
						JOINT RightForeArm
						{
							OFFSET -0.295874 -0.000000 -0.000000
							CHANNELS 3 Zrotation Xrotation Yrotation
							JOINT RightHand
							{
								OFFSET -0.194403 -0.000000 -0.000000
								CHANNELS 3 Zrotation Xrotation Yrotation
								JOINT RightFingerBase
								{
									OFFSET 0.000000 0.000000 0.000000
									CHANNELS 3 Zrotation Xrotation Yrotation
									JOINT RightHandIndex1
									{
										OFFSET -0.035138 -0.000000 -0.000000
										CHANNELS 3 Zrotation Xrotation Yrotation
										JOINT End_Site
										{
											OFFSET -0.028329 -0.000000 -0.000000
											CHANNELS 3 Zrotation Xrotation Yrotation
											End Site
											{
												OFFSET -0.008499 -0.000000 -0.000000
											}
										}
									}
								}
								JOINT RThumb
								{
									OFFSET 0.000000 0.000000 0.000000
									CHANNELS 3 Zrotation Xrotation Yrotation
									JOINT End_Site
									{
										OFFSET -0.028762 -0.000000 0.028762
										CHANNELS 3 Zrotation Xrotation Yrotation
										End Site
										{
											OFFSET -0.008628 -0.000000 0.008628
										}
									}
								}
							}
						}
					}
				}
			}
		}
	}
}
MOTION
Frames: 8
Frame Time: 0.03333333
0.000119 0.953337 -0.000001 -0.000000 0.000000 -0.000000 -4.987868 -10.359450 -10.547899 -9.805516 -16.414807 -7.661575 -1.725335 36.343215 14.260799 -1.315343 0.734138 -7.040977 -0.701155 -15.186304 -5.256086 -0.000000 0.000000 -0.000000 0.210608 15.386612 -11.919406 16.637852 -23.325110 12.693552 21.964279 30.569964 -18.637439 -9.295536 -16.568393 -24.176663 0.001203 0.303735 -0.453985 -0.000000 0.000000 -0.000000 10.410095 9.539443 -0.012236 4.523829 0.192930 0.081571 -0.000000 0.000000 -0.000000 -6.461902 -13.816470 -0.585213 6.549721 10.308886 -0.747989 3.222213 4.979574 -0.131504 -0.000000 0.000000 -0.000000 1.833084 10.060042 -29.295688 -24.706675 10.157934 -44.176023 19.711466 -7.169810 -39.660033 -0.000000 0.000000 -0.000000 11.394763 1.995780 19.806773 -6.873503 0.173697 -2.891695 -0.000000 0.000000 -0.000000 -9.271265 4.627494 37.025523 -0.000000 0.000000 -0.000000 0.725404 -11.098428 -23.746867 71.139559 -0.136107 -0.190325 -5.883881 -2.458726 45.328075 -0.000000 0.000000 -0.000000 -23.046386 -1.705419 8.350870 6.843480 -0.128461 -2.148217 -0.000000 0.000000 -0.000000 10.561192 5.919525 -31.554037 -0.000000 0.000000 -0.000000
0.014605 0.951490 -0.006283 0.000000 0.000000 0.000000 -4.977559 -10.330520 -10.519749 -10.343632 -16.617412 -7.852469 -0.756035 36.283685 13.878916 -1.351141 1.265533 -7.219884 -0.693093 -15.069950 -5.236263 0.000000 0.000000 0.000000 0.246488 15.597523 -12.086662 16.889704 -22.859274 12.500188 21.848666 30.573629 -18.597900 -9.372148 -17.011075 -24.057577 0.002350 0.598132 -0.450245 0.000000 0.000000 0.000000 10.612831 9.576576 -0.013881 4.528576 0.164775 0.083557 0.000000 0.000000 0.000000 -6.333800 -13.839397 -0.584290 6.352575 10.163124 -0.726890 3.068052 5.057558 -0.133973 0.000000 0.000000 0.000000 1.649845 10.082352 -29.257751 -23.467106 9.798602 -44.851792 20.164495 -7.214789 -39.045409 0.000000 0.000000 0.000000 11.093689 1.923367 19.613255 -6.750269 0.170475 -2.890001 0.000000 0.000000 0.000000 -8.932897 4.462338 36.981818 0.000000 0.000000 0.000000 0.777362 -11.025640 -23.556026 71.389033 0.587322 0.817504 -6.451445 -2.692296 45.267641 0.000000 0.000000 0.000000 -23.940568 -1.780758 8.384904 7.008335 -0.136769 -2.233200 0.000000 0.000000 0.000000 10.047101 5.629978 -31.557148 0.000000 0.000000 0.000000
0.035287 0.956054 -0.019608 0.000000 0.000000 0.000000 -4.803125 -10.041376 -10.194672 -11.162548 -16.918908 -8.145008 0.139903 36.163869 13.503132 -1.383841 1.630919 -7.395367 -0.709673 -15.170002 -5.325626 0.000000 0.000000 0.000000 0.261103 15.795014 -12.248843 17.352144 -22.413379 12.369287 21.581860 30.762600 -18.619441 -9.405468 -17.481626 -23.799821 0.002232 0.632660 -0.404300 0.000000 0.000000 0.000000 10.774255 9.863353 -0.043589 4.534915 0.130643 0.085979 0.000000 0.000000 0.000000 -6.265852 -13.886027 -0.586838 6.255615 9.936340 -0.698694 2.970617 5.158435 -0.137859 0.000000 0.000000 0.000000 1.456504 9.979688 -28.853533 -22.529193 9.620534 -45.808327 20.661558 -7.328979 -38.717091 0.000000 0.000000 0.000000 10.620732 1.826442 19.462142 -6.581826 0.167632 -2.914689 0.000000 0.000000 0.000000 -8.706726 4.338930 37.088213 0.000000 0.000000 0.000000 0.951905 -10.802439 -22.960512 71.853000 1.906539 2.630998 -7.360000 -3.059362 45.096549 0.000000 0.000000 0.000000 -24.858871 -1.889954 8.559818 7.213336 -0.147002 -2.331879 0.000000 0.000000 0.000000 9.560530 5.366413 -31.466070 0.000000 0.000000 0.000000
0.065288 0.955806 -0.040476 0.000000 0.000000 0.000000 -4.440650 -9.588458 -9.632950 -12.354021 -17.245783 -8.526200 1.093922 35.977748 13.084721 -1.406164 1.893393 -7.518498 -0.739360 -15.359724 -5.478832 0.000000 0.000000 0.000000 0.233987 15.937950 -12.376412 17.973835 -21.930556 12.253375 21.241390 31.106824 -18.709650 -9.426712 -18.049994 -23.443623 0.001577 0.536902 -0.336501 0.000000 0.000000 0.000000 10.945244 10.279480 -0.088547 4.531471 0.121056 0.086556 0.000000 0.000000 0.000000 -6.235796 -13.916406 -0.588810 6.239076 9.603706 -0.659858 2.934849 5.307906 -0.144513 0.000000 0.000000 0.000000 1.167785 9.794194 -28.164796 -21.529468 9.451173 -46.998484 21.125505 -7.478645 -38.629939 0.000000 0.000000 0.000000 10.083705 1.717655 19.286345 -6.401362 0.163676 -2.926302 0.000000 0.000000 0.000000 -8.443752 4.187265 37.308607 0.000000 0.000000 0.000000 1.213944 -10.435863 -22.007342 72.209567 3.826308 5.244543 -8.679718 -3.581291 44.778358 0.000000 0.000000 0.000000 -26.002878 -2.006150 8.672885 7.446123 -0.152749 -2.347083 0.000000 0.000000 0.000000 8.957342 5.049160 -31.249217 0.000000 0.000000 0.000000
0.096421 0.957820 -0.066001 0.000000 0.000000 0.000000 -4.091863 -8.989606 -8.973103 -13.482571 -17.667205 -8.954568 1.945229 35.735829 12.687527 -1.458121 2.131056 -7.822228 -0.773171 -15.537386 -5.662784 0.000000 0.000000 0.000000 0.295653 16.169896 -12.556036 18.598629 -21.633282 12.239235 20.873353 31.512133 -18.825277 -9.449457 -18.572571 -23.132901 0.000718 0.292374 -0.281278 0.000000 0.000000 0.000000 11.145582 10.855843 -0.153030 4.531514 0.032145 0.092541 0.000000 0.000000 0.000000 -6.179365 -14.108525 -0.604359 6.189499 9.296995 -0.623776 2.838536 5.436502 -0.149357 0.000000 0.000000 0.000000 0.941545 9.562386 -27.385031 -20.706074 9.394672 -48.434056 21.926880 -7.719725 -38.405065 0.000000 0.000000 0.000000 9.384080 1.592302 19.219530 -6.273348 0.160248 -2.923600 0.000000 0.000000 0.000000 -8.483973 4.184621 37.554359 0.000000 0.000000 0.000000 1.426050 -10.036311 -21.030252 72.708894 6.280591 8.525769 -10.272613 -4.202204 44.406170 0.000000 0.000000 0.000000 -27.092978 -2.202523 9.123287 7.683831 -0.159437 -2.373836 0.000000 0.000000 0.000000 8.407569 4.778903 -30.831662 0.000000 0.000000 0.000000
0.116244 0.961235 -0.089545 0.000000 0.000000 0.000000 -3.712494 -8.157053 -8.122896 -14.724936 -18.198491 -9.476403 2.781641 35.436759 12.280372 -1.537307 2.377359 -8.297948 -0.824834 -15.826748 -5.928889 0.000000 0.000000 0.000000 0.411239 16.498323 -12.804584 19.340171 -21.476995 12.332864 20.425340 31.990530 -18.953193 -9.466087 -19.102579 -22.807784 -0.000192 -0.107493 -0.204431 0.000000 0.000000 0.000000 11.356374 11.649839 -0.245004 4.516801 -0.124057 0.102730 0.000000 0.000000 0.000000 -6.145959 -14.438759 -0.632491 6.185912 8.966614 -0.585666 2.736148 5.569345 -0.154096 0.000000 0.000000 0.000000 0.755480 9.254730 -26.416927 -19.977419 9.426742 -50.171985 23.103208 -8.091123 -38.174675 0.000000 0.000000 0.000000 8.487546 1.441293 19.241622 -6.205379 0.158090 -2.915889 0.000000 0.000000 0.000000 -8.804913 4.311155 37.892226 0.000000 0.000000 0.000000 1.628942 -9.551029 -19.888880 72.946153 9.502625 12.830351 -12.231210 -4.961124 44.029234 0.000000 0.000000 0.000000 -28.161512 -2.495310 9.925065 7.977370 -0.166903 -2.393268 0.000000 0.000000 0.000000 7.867830 4.534658 -30.137721 0.000000 0.000000 0.000000
0.124971 0.965534 -0.106435 0.000000 0.000000 0.000000 -3.175243 -7.258921 -7.136698 -16.038198 -18.641039 -9.982691 3.512129 35.039196 11.881279 -1.627264 2.517402 -8.847324 -0.873859 -16.062624 -6.187370 0.000000 0.000000 0.000000 0.501988 16.692909 -12.947120 20.060708 -21.252102 12.379344 19.938748 32.543689 -19.108180 -9.463857 -19.622295 -22.446859 -0.000459 -0.548652 -0.095789 0.000000 0.000000 0.000000 11.583715 12.484826 -0.345345 4.472894 -0.307211 0.113995 0.000000 0.000000 0.000000 -6.026580 -14.895993 -0.668763 6.160036 8.659467 -0.550157 2.537941 5.744495 -0.159033 0.000000 0.000000 0.000000 0.465849 8.850546 -25.137707 -19.483020 9.590702 -52.084758 24.287873 -8.445615 -37.877107 0.000000 0.000000 0.000000 7.571242 1.287396 19.273504 -6.128200 0.157396 -2.939705 0.000000 0.000000 0.000000 -9.226238 4.492413 38.149974 0.000000 0.000000 0.000000 1.818599 -8.930840 -18.484130 72.735441 13.303367 17.997687 -14.433037 -5.729247 43.126052 0.000000 0.000000 0.000000 -29.277708 -2.766642 10.563884 8.209990 -0.166489 -2.319484 0.000000 0.000000 0.000000 7.179449 4.194176 -29.456808 0.000000 0.000000 0.000000
0.126074 0.970655 -0.113811 0.000000 0.000000 0.000000 -2.547147 -6.198281 -5.985683 -17.430888 -19.084399 -10.523153 4.225860 34.535640 11.457954 -1.744353 2.716526 -9.575726 -0.934213 -16.295557 -6.518217 0.000000 0.000000 0.000000 0.632792 16.841361 -13.040901 20.792775 -21.065884 12.449391 19.402845 33.132485 -19.260969 -9.443627 -20.079841 -22.087454 0.000211 -1.110668 0.021817 0.000000 0.000000 0.000000 11.855162 13.408229 -0.461126 4.404505 -0.569075 0.129710 0.000000 0.000000 0.000000 -5.842474 -15.560379 -0.719418 6.152747 8.417122 -0.522306 2.254051 5.976566 -0.164277 0.000000 0.000000 0.000000 0.134340 8.346874 -23.579356 -19.162341 9.897043 -54.309915 25.729024 -8.868510 -37.510385 0.000000 0.000000 0.000000 6.571799 1.121719 19.352332 -6.095017 0.158106 -2.969065 0.000000 0.000000 0.000000 -9.844056 4.766310 38.413962 0.000000 0.000000 0.000000 1.905621 -8.175812 -16.871675 71.573011 17.729302 24.416297 -16.877227 -6.485434 41.803370 0.000000 0.000000 0.000000 -30.410560 -3.029028 11.112249 8.409548 -0.159855 -2.174078 0.000000 0.000000 0.000000 6.274811 3.723061 -28.668371 0.000000 0.000000 0.000000
